<?xml version="1.0" encoding="UTF-8" standalone="no"?>
<!-- Created with Inkscape (http://www.inkscape.org/) -->

<svg
   xmlns:dc="http://purl.org/dc/elements/1.1/"
   xmlns:cc="http://creativecommons.org/ns#"
   xmlns:rdf="http://www.w3.org/1999/02/22-rdf-syntax-ns#"
   xmlns:svg="http://www.w3.org/2000/svg"
   xmlns="http://www.w3.org/2000/svg"
   xmlns:sodipodi="http://sodipodi.sourceforge.net/DTD/sodipodi-0.dtd"
   xmlns:inkscape="http://www.inkscape.org/namespaces/inkscape"
   width="744.09448819"
   height="1052.3622047"
   id="svg2"
   version="1.1"
   inkscape:version="0.48.4 r9939"
   sodipodi:docname="New document 1">
  <defs
     id="defs4">
    <filter
       inkscape:collect="always"
       id="filter3982"
       x="-0.086510339"
       width="1.1730207"
       y="-0.14932281"
       height="1.2986456">
      <feGaussianBlur
         inkscape:collect="always"
         stdDeviation="4.4961366"
         id="feGaussianBlur3984" />
    </filter>
  </defs>
  <sodipodi:namedview
     id="base"
     pagecolor="#ffffff"
     bordercolor="#666666"
     borderopacity="1.0"
     inkscape:pageopacity="0.0"
     inkscape:pageshadow="2"
     inkscape:zoom="0.80794458"
     inkscape:cx="1212.3812"
     inkscape:cy="556.04535"
     inkscape:document-units="px"
     inkscape:current-layer="layer1"
     showgrid="false"
     objecttolerance="20"
     inkscape:snap-global="true"
     inkscape:snap-bbox="true"
     gridtolerance="10"
     inkscape:window-width="1366"
     inkscape:window-height="716"
     inkscape:window-x="-8"
     inkscape:window-y="-8"
     inkscape:window-maximized="1" />
  <metadata
     id="metadata7">
    <rdf:RDF>
      <cc:Work
         rdf:about="">
        <dc:format>image/svg+xml</dc:format>
        <dc:type
           rdf:resource="http://purl.org/dc/dcmitype/StillImage" />
        <dc:title></dc:title>
      </cc:Work>
    </rdf:RDF>
  </metadata>
  <g
     inkscape:label="Layer 1"
     inkscape:groupmode="layer"
     id="layer1">
    <path
       sodipodi:type="arc"
       style="fill:none;stroke:#929497;stroke-width:50.24644424000000200;stroke-linecap:butt;stroke-linejoin:miter;stroke-miterlimit:4;stroke-opacity:1;stroke-dasharray:none"
       id="path2989"
       sodipodi:cx="434.28571"
       sodipodi:cy="509.50504"
       sodipodi:rx="251.42857"
       sodipodi:ry="251.42857"
       d="m 685.71428,509.50504 a 251.42857,251.42857 0 1 1 -502.85715,0 251.42857,251.42857 0 1 1 502.85715,0 z"
       transform="matrix(0.99509529,0,0,0.99509529,-67.215828,46.93178)" />
    <path
       transform="matrix(0.99509529,0,0,0.99509529,-69.170055,46.93178)"
       d="m 685.71428,509.50504 a 251.42857,251.42857 0 1 1 -502.85715,0 251.42857,251.42857 0 1 1 502.85715,0 z"
       sodipodi:ry="251.42857"
       sodipodi:rx="251.42857"
       sodipodi:cy="509.50504"
       sodipodi:cx="434.28571"
       id="path4090"
       style="fill:none;stroke:#eaeeef;stroke-width:5.02464436999999990;stroke-linecap:butt;stroke-linejoin:miter;stroke-miterlimit:4;stroke-opacity:1;stroke-dasharray:10.04928885000000000, 5.02464441999999960;stroke-dashoffset:0"
       sodipodi:type="arc" />
    <rect
       style="fill:#003886;fill-opacity:1;stroke:none"
       id="rect3800"
       width="41.072796"
       height="49.960381"
       x="64.418091"
       y="702.96771" />
    <path
       style="fill:#929497;fill-opacity:1;stroke:#929497;stroke-width:3.46476603;stroke-miterlimit:4;stroke-opacity:1;stroke-dasharray:none"
       d="m 12.4899,680.84564 0,0.5038 25.9452,34.385 -25.9452,35.2666 0,0.3778 89.74123,-0.2664 -23.80339,-35.2666 0,-35.2666 z"
       id="rect3793"
       inkscape:connector-curvature="0"
       sodipodi:nodetypes="ccccccccc" />
    <rect
       y="703.08575"
       x="-661.44861"
       height="49.922401"
       width="39.618622"
       id="rect3812"
       style="fill:#003886;fill-opacity:1;stroke:none"
       transform="scale(-1,1)" />
    <path
       sodipodi:nodetypes="ccccccccc"
       inkscape:connector-curvature="0"
       id="path3814"
       d="m 714.99972,681.0455 0,0.5038 -25.9452,34.385 25.9452,35.2666 0,0.3779 -89.74134,-0.2665 23.80343,-35.2666 0,-35.2666 z"
       style="fill:#929497;fill-opacity:1;stroke:#929497;stroke-width:3.46476841;stroke-miterlimit:4;stroke-opacity:1;stroke-dasharray:none" />
    <path
       style="fill:#ccd7e7;fill-opacity:1;stroke:none;stroke-width:4;stroke-miterlimit:4;stroke-opacity:1;stroke-dasharray:none"
       d="m 79.01883,645.45164 c 0,0 189.45568,0 284.18352,0 94.72785,0 284.18353,0 284.18353,0 l 0,70 c 0,0 -189.45568,0 -284.18353,0 -94.72785,0 -284.18352,0 -284.18352,0 z"
       id="rect3791"
       inkscape:connector-curvature="0"
       sodipodi:nodetypes="cscczcc" />
    <rect
       style="fill:none;stroke:#929497;stroke-width:4.54122734;stroke-miterlimit:4;stroke-opacity:1;stroke-dasharray:none;stroke-dashoffset:0"
       id="rect4031"
       width="554.29102"
       height="55.411938"
       x="86.282448"
       y="652.24677" />
    <path
       transform="translate(-2.40877,38.5404)"
       sodipodi:type="arc"
       style="fill:#67696b;fill-opacity:1;stroke:#929497;stroke-width:4;stroke-miterlimit:4;stroke-opacity:1;stroke-dasharray:none;stroke-dashoffset:0"
       id="path4033"
       sodipodi:cx="66.001381"
       sodipodi:cy="661.88947"
       sodipodi:rx="8.0904922"
       sodipodi:ry="8.0904922"
       d="m 74.091873,661.88947 a 8.0904922,8.0904922 0 1 1 -16.180984,0 8.0904922,8.0904922 0 1 1 16.180984,0 z" />
    <path
       d="m 74.091873,661.88947 a 8.0904922,8.0904922 0 1 1 -16.180984,0 8.0904922,8.0904922 0 1 1 16.180984,0 z"
       sodipodi:ry="8.0904922"
       sodipodi:rx="8.0904922"
       sodipodi:cy="661.88947"
       sodipodi:cx="66.001381"
       id="path4035"
       style="fill:#67696b;fill-opacity:1;stroke:#929497;stroke-width:4;stroke-miterlimit:4;stroke-opacity:1;stroke-dasharray:none;stroke-dashoffset:0"
       sodipodi:type="arc"
       transform="translate(-2.40877,74.5404)" />
    <path
       d="m 74.091873,661.88947 a 8.0904922,8.0904922 0 1 1 -16.180984,0 8.0904922,8.0904922 0 1 1 16.180984,0 z"
       sodipodi:ry="8.0904922"
       sodipodi:rx="8.0904922"
       sodipodi:cy="661.88947"
       sodipodi:cx="66.001381"
       id="path4037"
       style="fill:#67696b;fill-opacity:1;stroke:#929497;stroke-width:4;stroke-miterlimit:4;stroke-opacity:1;stroke-dasharray:none;stroke-dashoffset:0"
       sodipodi:type="arc"
       transform="translate(597.59123,38.5404)" />
    <path
       transform="translate(597.59123,74.5404)"
       sodipodi:type="arc"
       style="fill:#67696b;fill-opacity:1;stroke:#929497;stroke-width:4;stroke-miterlimit:4;stroke-opacity:1;stroke-dasharray:none;stroke-dashoffset:0"
       id="path4039"
       sodipodi:cx="66.001381"
       sodipodi:cy="661.88947"
       sodipodi:rx="8.0904922"
       sodipodi:ry="8.0904922"
       d="m 74.091873,661.88947 a 8.0904922,8.0904922 0 1 1 -16.180984,0 8.0904922,8.0904922 0 1 1 16.180984,0 z" />
    <g
       id="g4082"
       transform="translate(-5.40877,40.54038)">
      <text
         sodipodi:linespacing="125%"
         id="text4027"
         y="658.58038"
         x="114.11798"
         style="font-size:48px;font-style:normal;font-variant:normal;font-weight:900;font-stretch:normal;text-align:start;line-height:125%;letter-spacing:0px;word-spacing:0px;writing-mode:lr-tb;text-anchor:start;fill:#000000;fill-opacity:1;stroke:none;font-family:Arial Black;-inkscape-font-specification:'Arial Black, Heavy'"
         xml:space="preserve"><tspan
           y="658.58038"
           x="114.11798"
           id="tspan4029"
           sodipodi:role="line">SPACE HARDWARE</tspan></text>
      <text
         xml:space="preserve"
         style="font-size:48px;font-style:normal;font-variant:normal;font-weight:900;font-stretch:normal;text-align:start;line-height:125%;letter-spacing:0px;word-spacing:0px;writing-mode:lr-tb;text-anchor:start;fill:#929497;fill-opacity:1;stroke:none;font-family:Arial Black;-inkscape-font-specification:'Arial Black, Heavy'"
         x="118.11798"
         y="656.58038"
         id="text4053"
         sodipodi:linespacing="125%"><tspan
           sodipodi:role="line"
           id="tspan4055"
           x="118.11798"
           y="656.58038">SPACE HARDWARE</tspan></text>
      <text
         sodipodi:linespacing="125%"
         id="text4078"
         y="654.58038"
         x="120.11798"
         style="font-size:48px;font-style:normal;font-variant:normal;font-weight:900;font-stretch:normal;text-align:start;line-height:125%;letter-spacing:0px;word-spacing:0px;writing-mode:lr-tb;text-anchor:start;fill:#ff2a2a;fill-opacity:1;stroke:none;font-family:Arial Black;-inkscape-font-specification:'Arial Black, Heavy'"
         xml:space="preserve"><tspan
           y="654.58038"
           x="120.11798"
           id="tspan4080"
           sodipodi:role="line">SPACE HARDWARE</tspan></text>
    </g>
    <text
       xml:space="preserve"
       style="font-size:25px;font-style:normal;font-variant:normal;font-weight:900;font-stretch:normal;text-align:start;line-height:125%;letter-spacing:0px;word-spacing:0px;writing-mode:lr-tb;text-anchor:start;fill:#000000;fill-opacity:1;stroke:none;font-family:Arial Black;-inkscape-font-specification:'Arial Black, Heavy'"
       x="243.23901"
       y="737.67401"
       id="text4165"
       sodipodi:linespacing="125%"><tspan
         sodipodi:role="line"
         id="tspan4167"
         x="243.23901"
         y="737.67401">-NORTH FLORIDA-</tspan></text>
    <path
       transform="matrix(0.99509529,0,0,0.99509529,922.64183,62.250038)"
       d="m 685.71428,509.50504 a 251.42857,251.42857 0 1 1 -502.85715,0 251.42857,251.42857 0 1 1 502.85715,0 z"
       sodipodi:ry="251.42857"
       sodipodi:rx="251.42857"
       sodipodi:cy="509.50504"
       sodipodi:cx="434.28571"
       id="path4090-2"
       style="fill:#000009;fill-opacity:1;stroke:none;stroke-width:5.02464436999999990;stroke-linecap:butt;stroke-linejoin:miter;stroke-miterlimit:4;stroke-opacity:1;stroke-dasharray:10.04928885000000000, 5.02464441999999960;stroke-dashoffset:0"
       sodipodi:type="arc" />
    <path
       sodipodi:type="star"
       style="fill:#ffffff;fill-opacity:1;stroke:none"
       id="path4218"
       sodipodi:sides="7"
       sodipodi:cx="798.17529"
       sodipodi:cy="294.88336"
       sodipodi:r1="10.53871"
       sodipodi:r2="1.2620034"
       sodipodi:arg1="0.72664231"
       sodipodi:arg2="1.2369103"
       inkscape:flatsided="false"
       inkscape:rounded="0"
       inkscape:randomized="0"
       d="m 806.05202,301.8849 -7.46315,-5.80923 -0.97654,9.33135 -0.11136,-9.45691 -7.90441,5.05451 7.32429,-5.98336 -8.8801,-3.02848 9.2446,1.99579 -3.16889,-8.83096 4.20353,8.47207 4.92856,-7.98355 -4.00287,8.56871 9.3147,-1.12437 -9.19504,2.21294 z"
       inkscape:transform-center-x="-1.0253961"
       inkscape:transform-center-y="1.927591"
       transform="matrix(0.80294195,-0.59605723,0.59605723,0.80294195,377.42353,704.74784)" />
    <path
       sodipodi:type="star"
       style="fill:#ffffff;fill-opacity:1;stroke:none"
       id="path4218-4"
       sodipodi:sides="7"
       sodipodi:cx="798.17529"
       sodipodi:cy="294.88336"
       sodipodi:r1="10.53871"
       sodipodi:r2="1.2620034"
       sodipodi:arg1="0.72664231"
       sodipodi:arg2="1.2369103"
       inkscape:flatsided="false"
       inkscape:rounded="0"
       inkscape:randomized="0"
       d="m 806.05202,301.8849 -7.46315,-5.80923 -0.97654,9.33135 -0.11136,-9.45691 -7.90441,5.05451 7.32429,-5.98336 -8.8801,-3.02848 9.2446,1.99579 -3.16889,-8.83096 4.20353,8.47207 4.92856,-7.98355 -4.00287,8.56871 9.3147,-1.12437 -9.19504,2.21294 z"
       inkscape:transform-center-x="-1.9952282"
       inkscape:transform-center-y="3.7506262"
       transform="matrix(1.5623397,-1.1597898,1.1597898,1.5623397,-381.441,1010.6497)" />
    <path
       sodipodi:type="star"
       style="fill:#ffffff;fill-opacity:1;stroke:none"
       id="path4218-4-5"
       sodipodi:sides="7"
       sodipodi:cx="798.17529"
       sodipodi:cy="294.88336"
       sodipodi:r1="10.53871"
       sodipodi:r2="1.2620034"
       sodipodi:arg1="0.72664231"
       sodipodi:arg2="1.2369103"
       inkscape:flatsided="false"
       inkscape:rounded="0"
       inkscape:randomized="0"
       d="m 806.05202,301.8849 -7.46315,-5.80923 -0.97654,9.33135 -0.11136,-9.45691 -7.90441,5.05451 7.32429,-5.98336 -8.8801,-3.02848 9.2446,1.99579 -3.16889,-8.83096 4.20353,8.47207 4.92856,-7.98355 -4.00287,8.56871 9.3147,-1.12437 -9.19504,2.21294 z"
       inkscape:transform-center-x="-1.9952282"
       inkscape:transform-center-y="3.7506262"
       transform="matrix(1.5623397,-1.1597898,1.1597898,1.5623397,-136.57389,876.63798)" />
    <path
       sodipodi:type="star"
       style="fill:#ffffff;fill-opacity:1;stroke:none"
       id="path4218-4-5-8"
       sodipodi:sides="7"
       sodipodi:cx="798.17529"
       sodipodi:cy="294.88336"
       sodipodi:r1="10.53871"
       sodipodi:r2="1.2620034"
       sodipodi:arg1="0.72664231"
       sodipodi:arg2="1.2369103"
       inkscape:flatsided="false"
       inkscape:rounded="0"
       inkscape:randomized="0"
       d="m 806.05202,301.8849 -7.46315,-5.80923 -0.97654,9.33135 -0.11136,-9.45691 -7.90441,5.05451 7.32429,-5.98336 -8.8801,-3.02848 9.2446,1.99579 -3.16889,-8.83096 4.20353,8.47207 4.92856,-7.98355 -4.00287,8.56871 9.3147,-1.12437 -9.19504,2.21294 z"
       inkscape:transform-center-x="-3.0550354"
       inkscape:transform-center-y="6.4313683"
       transform="matrix(2.3922106,-1.9887437,1.7758375,2.6790141,-1050.8785,1562.6525)" />
  </g>
</svg>
